<svg xmlns="http://www.w3.org/2000/svg" viewBox="0 0 308 57" width="308" height="57">
	<style>
		tspan { white-space:pre }
		.shp0 { fill: none } 
		.shp1 { fill: #ffffff } 
	</style>
	<path id="Artboard1" class="shp0" d="M0 0L307.44 0L307.44 56.16L0 56.16L0 0Z" />
	<g id="Artboard11">
		<path id="path3" class="shp1" d="M28.05 27.29C31.07 27.29 33.53 24.83 33.53 21.81C33.53 18.79 31.07 16.34 28.05 16.34C25.03 16.34 22.57 18.79 22.57 21.81C22.57 24.83 25.03 27.29 28.05 27.29" />
		<path id="path5" fill-rule="evenodd" class="shp1" d="M28.05 0.08C43.52 0.08 56.06 12.62 56.06 28.09C56.06 43.56 43.52 56.1 28.05 56.1C12.58 56.1 0.04 43.56 0.04 28.09C0.04 12.62 12.58 0.08 28.05 0.08ZM28.05 10.97C22.07 10.97 17.21 15.84 17.21 21.81C17.21 27.79 22.07 32.65 28.05 32.65C34.03 32.65 38.89 27.79 38.89 21.81C38.89 15.84 34.03 10.97 28.05 10.97ZM39.29 42.9C39.68 42.9 40 42.58 39.98 42.19C39.89 40.38 39.45 38.61 38.71 36.99C38.01 35.45 37.03 34.02 35.81 32.8C35.47 32.46 34.89 32.7 34.89 33.19L34.89 33.53C34.89 35.44 33.34 36.99 31.43 36.99L17.84 36.99C17.56 36.99 17.31 37.15 17.2 37.41C16.57 38.92 16.2 40.53 16.12 42.19C16.1 42.58 16.42 42.9 16.81 42.9L39.3 42.9" />
		<path id="path7" class="shp1" d="M70.91 42.54L70.91 11.6C70.91 11.23 71.14 11 71.5 11L91.24 11C91.61 11 91.84 11.23 91.84 11.6L91.84 14.4C91.84 14.77 91.65 15 91.24 15L74.94 15L74.94 25.56L89.18 25.56C89.54 25.56 89.77 25.78 89.77 26.15L89.77 28.86C89.77 29.18 89.54 29.46 89.18 29.46L74.94 29.46L74.94 42.54C74.94 42.91 74.72 43.14 74.35 43.14L71.5 43.14C71.09 43.14 70.91 42.91 70.91 42.54Z" />
		<path id="path9" class="shp1" d="M98.65 20.18C99.06 20.18 99.29 20.41 99.29 20.78L99.29 32.21C99.29 36.66 101.13 39.74 105.35 39.74C109.25 39.74 112.05 36.07 112.05 32.35L112.05 20.78C112.05 20.42 112.28 20.19 112.65 20.19L115.49 20.19C115.86 20.19 116.09 20.42 116.09 20.78L116.09 42.54C116.09 42.95 115.86 43.14 115.49 43.14L112.65 43.14C112.28 43.14 112.05 42.95 112.05 42.54L112.05 38.55C110.86 40.84 108.1 43.6 104.11 43.6C98.1 43.6 95.25 39.42 95.25 32.9L95.25 20.78C95.25 20.42 95.48 20.19 95.85 20.19L98.65 20.19L98.65 20.18Z" />
		<path id="path11" class="shp1" d="M122.49 42.54L122.49 11.6C122.49 11.19 122.67 11 123.08 11L125.88 11C126.3 11 126.48 11.19 126.48 11.6L126.48 42.54C126.48 42.95 126.3 43.14 125.88 43.14L123.08 43.14C122.67 43.14 122.49 42.95 122.49 42.54Z" />
		<path id="path13" class="shp1" d="M132.88 42.54L132.88 11.6C132.88 11.19 133.06 11 133.47 11L136.27 11C136.69 11 136.87 11.19 136.87 11.6L136.87 42.54C136.87 42.95 136.69 43.14 136.27 43.14L133.47 43.14C133.06 43.14 132.88 42.95 132.88 42.54Z" />
		<path id="path15" fill-rule="evenodd" class="shp1" d="M181.47 19.73C188.08 19.73 193.27 25.05 193.27 31.66C193.27 38.27 188.08 43.59 181.47 43.59C174.86 43.59 169.63 38.27 169.63 31.66C169.63 25.05 174.86 19.73 181.47 19.73ZM181.47 37.17C184.41 37.17 186.71 34.78 186.71 31.66C186.71 28.54 184.41 26.15 181.47 26.15C178.49 26.15 176.24 28.54 176.24 31.66C176.24 34.78 178.49 37.17 181.47 37.17Z" />
		<path id="path17" class="shp1" d="M213.41 43.14C212.86 43.14 212.58 42.81 212.58 42.36L212.58 31.39C212.58 28.4 211.25 26.15 208.26 26.15C205.65 26.15 203.63 28.54 203.63 30.88L203.63 42.36C203.63 42.82 203.35 43.14 202.85 43.14L197.66 43.14C197.16 43.14 196.88 42.82 196.88 42.36L196.88 20.97C196.88 20.46 197.16 20.18 197.66 20.18L202.85 20.18C203.35 20.18 203.63 20.46 203.63 20.97L203.63 23.54C205.01 21.65 207.35 19.73 210.7 19.73C216.25 19.73 219.33 23.49 219.33 30.05L219.33 42.36C219.33 42.82 219.05 43.14 218.55 43.14L213.41 43.14L213.41 43.14Z" />
		<path id="path19" class="shp1" d="M239.13 41.99C236.97 43.23 235.09 43.6 233.07 43.6C228.2 43.6 225.45 40.84 225.45 35.98L225.45 26.34L223.38 26.34C222.92 26.34 222.6 26.11 222.6 25.56L222.6 20.97C222.6 20.42 222.92 20.19 223.38 20.19L225.45 20.19L225.45 14.17C225.45 13.71 225.68 13.39 226.23 13.39L231.37 13.39C231.97 13.39 232.19 13.76 232.19 14.17L232.19 20.19L237.43 20.19C237.93 20.19 238.25 20.51 238.25 20.97L238.25 25.56C238.25 26.02 237.98 26.34 237.47 26.34L232.19 26.34L232.19 35.06C232.19 36.62 233.11 37.17 234.31 37.17C235.23 37.17 235.87 36.94 236.65 36.57C237.06 36.34 237.29 36.44 237.47 36.8L239.45 40.98C239.59 41.39 239.59 41.71 239.13 41.99Z" />
		<path id="path21" fill-rule="evenodd" class="shp1" d="M253.48 19.73C262.93 19.73 265.14 24.73 265.14 31.2L265.14 42.31C265.14 42.86 264.86 43.14 264.31 43.14L259.54 43.14C258.94 43.14 258.71 42.82 258.71 42.31L258.71 40.84C256.65 42.86 252.84 43.55 250.36 43.6C246.64 43.64 242.37 42.03 242.41 36.8C242.51 29.55 252.47 29.32 256.87 29.32L258.34 29.37L258.34 29.14C258.34 27.76 257.61 25.56 252.93 25.56C249.9 25.56 246.41 26.7 246.41 26.7C246 26.84 245.54 26.75 245.35 26.24L244.02 22.8C243.84 22.25 243.84 21.84 244.39 21.61C244.39 21.61 248.2 19.73 253.48 19.73ZM257.84 33.22C253.06 33.22 249.49 33.82 249.49 36.57C249.49 38.32 251.69 38.59 253.2 38.59C256.14 38.59 258.48 36.97 258.48 34.78L258.48 33.22L257.84 33.22L257.84 33.22Z" />
		<path id="path23" class="shp1" d="M287.37 41.53C285.63 42.68 283.19 43.6 280.44 43.6C273.83 43.6 268.6 38.27 268.6 31.66C268.6 25.05 273.83 19.73 280.44 19.73C283.38 19.73 285.76 20.83 287.32 21.88C287.74 22.11 287.83 22.62 287.55 22.99L284.75 26.93C284.48 27.3 284.16 27.44 283.65 27.12C282.32 26.29 281.17 26.15 280.44 26.15C277.46 26.15 275.21 28.54 275.21 31.66C275.21 34.78 277.46 37.17 280.44 37.17C281.63 37.17 282.78 36.85 283.79 36.25C284.2 36.07 284.48 36.07 284.8 36.48L287.6 40.43C287.92 40.93 287.78 41.26 287.37 41.53Z" />
		<path id="path25" class="shp1" d="M306.95 41.99C304.8 43.23 302.92 43.6 300.9 43.6C296.03 43.6 293.28 40.84 293.28 35.98L293.28 26.34L291.21 26.34C290.75 26.34 290.43 26.11 290.43 25.56L290.43 20.97C290.43 20.42 290.75 20.19 291.21 20.19L293.28 20.19L293.28 14.17C293.28 13.71 293.51 13.39 294.06 13.39L299.2 13.39C299.79 13.39 300.02 13.76 300.02 14.17L300.02 20.19L305.26 20.19C305.76 20.19 306.08 20.51 306.08 20.97L306.08 25.56C306.08 26.02 305.81 26.34 305.3 26.34L300.02 26.34L300.02 35.06C300.02 36.62 300.94 37.17 302.14 37.17C303.05 37.17 303.7 36.94 304.48 36.57C304.89 36.34 305.12 36.44 305.3 36.8L307.28 40.98C307.41 41.39 307.41 41.71 306.95 41.99Z" />
		<path id="path27" class="shp1" d="M158.92 36.91C153.39 36.91 148.93 32.36 149.09 26.79C149.24 21.72 153.32 17.54 158.38 17.27C160.69 17.14 162.84 17.82 164.57 19.04C165.05 19.38 165.71 19.3 166.1 18.86L169.05 15.48C169.5 14.97 169.41 14.2 168.87 13.79C165.96 11.61 162.31 10.35 158.36 10.48C149.36 10.78 142.18 18.34 142.32 27.34C142.47 36.38 149.85 43.67 158.92 43.67C162.54 43.67 165.9 42.5 168.63 40.53C169.17 40.13 169.28 39.36 168.84 38.84L165.96 35.43C165.58 34.98 164.92 34.89 164.44 35.22C162.86 36.29 160.96 36.91 158.92 36.91" />
	</g>
</svg>